<?xml version="1.0" encoding="utf-8"?>
<!-- Generator: Adobe Illustrator 26.4.1, SVG Export Plug-In . SVG Version: 6.00 Build 0)  -->
<svg version="1.0" id="Layer_1" xmlns="http://www.w3.org/2000/svg" xmlns:xlink="http://www.w3.org/1999/xlink" x="0px" y="0px"
	 width="221.5px" height="76px" viewBox="0 0 221.5 76" style="enable-background:new 0 0 221.5 76;" xml:space="preserve">
<style type="text/css">
	.st0{fill:#E88DBB;stroke:#FFFFFF;stroke-miterlimit:10;}
	.st1{fill:#81D0D8;stroke:#FFFFFF;stroke-miterlimit:10;}
	.st2{stroke:#FFFFFF;}
	.st3{stroke:#FFFFFF;stroke-miterlimit:10;}
</style>
<g>
	<g>
		<path class="st0" d="M56,44.7c1,0.1,2,0.3,3,0.5c1,0.2,2,0.5,3,0.7c7.4,1.7,10.6,4.9,9.6,9.4c-0.3,1.4-1.2,2.6-2.5,3.6
			c-1.3,1-2.9,1.2-4.8,0.8c-1.7-0.4-3.4-1.3-5.3-2.7c-1.8-1.4-3.6-2.8-5.3-4.4c-1.7-1.5-3.4-3-5-4.3c-1.6-1.3-3.1-2.1-4.5-2.5
			c-0.7-0.2-1.2,0.2-1.4,1.2c-0.3,1.2,0.1,2.8,1,4.9c1,2.1,2,4.3,3.2,6.6c1.2,2.4,2.2,4.7,3.1,7c0.9,2.3,1.2,4.2,0.9,5.6
			c-0.4,1.8-1.3,3.1-2.7,3.9c-1.4,0.8-2.8,1.1-4.2,0.7c-2.5-0.6-4.1-2.3-4.7-5.3c-0.6-2.9-1-6.1-0.9-9.4c0-3.3,0.1-6.4,0.2-9.1
			c0.1-2.7-0.3-4.2-1.2-4.5c-1.2-0.3-2.4,0.8-3.6,3.3c-1.2,2.5-2.6,5.3-4,8.3c-1.5,3-3.1,5.7-4.9,8c-1.8,2.4-3.9,3.3-6.3,2.7
			c-1.7-0.4-2.9-1.3-3.8-2.6c-0.8-1.3-1-3-0.6-4.9c0.4-1.6,1.5-3.3,3.4-5.1c1.9-1.8,3.9-3.6,6.1-5.2c2.2-1.6,4.2-3.1,6-4.4
			c1.8-1.3,2.7-2.3,2.9-3c0.2-1-0.2-1.6-1.3-1.8c-1.2-0.3-2.8-0.2-4.7,0.3c-1.9,0.5-4,1-6.2,1.6c-2.2,0.6-4.4,1-6.7,1.5
			c-2.2,0.4-4.2,0.4-5.9,0c-2-0.5-3.4-1.4-4.2-2.8C2.8,42.2,2.6,40.7,3,39c1-4.3,5.6-5.5,13.7-3.6l11.7,2.7c2.5,0.6,3.9,0.3,4.2-0.7
			c0.3-1.2-0.6-2.6-2.6-4.3c-2-1.7-4.2-3.5-6.7-5.5c-2.5-2-4.6-4-6.6-6c-1.9-2-2.7-4-2.2-5.9c0.4-1.7,1.2-2.9,2.6-3.7
			c1.3-0.8,2.8-1,4.5-0.6c1.9,0.4,3.6,1.8,5.1,4.1c1.5,2.3,2.8,4.8,3.9,7.5c1.1,2.7,2.2,5.1,3.2,7.3c1,2.2,2,3.4,2.9,3.6
			c0.8,0.2,1.4-0.5,1.8-2c0.8-3.5,1-7,0.7-10.6c-0.4-3.6-0.2-7,0.6-10.1c0.6-2.4,1.5-4,2.9-4.8c1.4-0.8,2.9-1,4.6-0.6
			c1.3,0.3,2.5,1.1,3.5,2.5c1,1.4,1.2,3.3,0.7,5.7c-0.4,1.6-0.9,3.1-1.7,4.6c-0.8,1.5-1.6,3.1-2.5,4.6c-0.9,1.6-1.7,3.2-2.5,4.8
			c-0.8,1.6-1.4,3.4-1.9,5.2c-0.3,1.4-0.1,2.3,0.8,2.5c1.2,0.3,2.8-0.3,4.8-1.8c2-1.5,4.1-3.2,6.4-5c2.3-1.9,4.5-3.5,6.8-5
			c2.2-1.4,4.2-2,5.9-1.6c1.7,0.4,2.9,1.3,3.8,2.6c0.8,1.3,1,2.8,0.7,4.5c-0.4,1.9-2,3.4-4.7,4.5c-2.7,1.1-5.6,2-8.7,2.7
			c-3.1,0.7-6,1.4-8.5,1.9c-2.5,0.5-3.9,1.3-4.1,2.3c0,0.6,0.7,1.2,2,1.8c1.4,0.6,3,1.1,4.8,1.5L56,44.7z"/>
	</g>
	<g>
		<path class="st1" d="M53.3,39.2c1,0.1,2,0.3,3,0.5c1,0.2,2,0.5,3,0.7c7.4,1.7,10.6,4.9,9.6,9.4c-0.3,1.4-1.2,2.6-2.5,3.6
			c-1.3,1-2.9,1.2-4.8,0.8c-1.7-0.4-3.4-1.3-5.3-2.7c-1.8-1.4-3.6-2.8-5.3-4.4c-1.7-1.5-3.4-3-5-4.3c-1.6-1.3-3.1-2.1-4.5-2.5
			c-0.7-0.2-1.2,0.2-1.4,1.2c-0.3,1.2,0.1,2.8,1,4.9c1,2.1,2,4.3,3.2,6.6c1.2,2.4,2.2,4.7,3.1,7c0.9,2.3,1.2,4.2,0.9,5.6
			c-0.4,1.8-1.3,3.1-2.7,3.9c-1.4,0.8-2.8,1.1-4.2,0.7c-2.5-0.6-4.1-2.3-4.7-5.3c-0.6-2.9-1-6.1-0.9-9.4c0-3.3,0.1-6.4,0.2-9.1
			c0.1-2.7-0.3-4.2-1.2-4.5c-1.2-0.3-2.4,0.8-3.6,3.3c-1.2,2.5-2.6,5.3-4,8.3c-1.5,3-3.1,5.7-4.9,8c-1.8,2.4-3.9,3.3-6.3,2.7
			c-1.7-0.4-2.9-1.3-3.8-2.6c-0.8-1.3-1-3-0.6-4.9c0.4-1.6,1.5-3.3,3.4-5.1c1.9-1.8,3.9-3.6,6.1-5.2c2.2-1.6,4.2-3.1,6-4.4
			c1.8-1.3,2.7-2.3,2.9-3c0.2-1-0.2-1.6-1.3-1.8c-1.2-0.3-2.8-0.2-4.7,0.3c-1.9,0.5-4,1-6.2,1.6c-2.2,0.6-4.4,1-6.7,1.5
			c-2.2,0.4-4.2,0.4-5.9,0c-2-0.5-3.4-1.4-4.2-2.8c-0.8-1.4-0.9-2.9-0.5-4.6c1-4.3,5.6-5.5,13.7-3.6l11.7,2.7
			c2.5,0.6,3.9,0.3,4.2-0.7c0.3-1.2-0.6-2.6-2.6-4.3c-2-1.7-4.2-3.5-6.7-5.5c-2.5-2-4.6-4-6.6-6c-1.9-2-2.7-4-2.2-5.9
			c0.4-1.7,1.2-2.9,2.6-3.7c1.3-0.8,2.8-1,4.5-0.6c1.9,0.4,3.6,1.8,5.1,4.1c1.5,2.3,2.8,4.8,3.9,7.5c1.1,2.7,2.2,5.1,3.2,7.3
			c1,2.2,2,3.4,2.9,3.6c0.8,0.2,1.4-0.5,1.8-2c0.8-3.5,1-7,0.7-10.6c-0.4-3.6-0.2-7,0.6-10.1c0.6-2.4,1.5-4,2.9-4.8
			c1.4-0.8,2.9-1,4.6-0.6c1.3,0.3,2.5,1.1,3.5,2.5c1,1.4,1.2,3.3,0.7,5.7c-0.4,1.6-0.9,3.1-1.7,4.6c-0.8,1.5-1.6,3.1-2.5,4.6
			c-0.9,1.6-1.7,3.2-2.5,4.8c-0.8,1.6-1.4,3.4-1.9,5.2C39.7,29,40,29.8,40.8,30c1.2,0.3,2.8-0.3,4.8-1.8c2-1.5,4.1-3.2,6.4-5
			c2.3-1.9,4.5-3.5,6.8-5c2.2-1.4,4.2-2,5.9-1.6c1.7,0.4,2.9,1.3,3.8,2.6c0.8,1.3,1,2.8,0.7,4.5c-0.4,1.9-2,3.4-4.7,4.5
			c-2.7,1.1-5.6,2-8.7,2.7c-3.1,0.7-6,1.4-8.5,1.9c-2.5,0.5-3.9,1.3-4.1,2.3c0,0.6,0.7,1.2,2,1.8c1.4,0.6,3,1.1,4.8,1.5L53.3,39.2z"
			/>
	</g>
	<g>
		<path class="st2" d="M54.2,42c1,0.1,2,0.3,3,0.5c1,0.2,2,0.5,3,0.7c7.4,1.7,10.6,4.9,9.6,9.4c-0.3,1.4-1.2,2.6-2.5,3.6
			c-1.3,1-2.9,1.2-4.8,0.8c-1.7-0.4-3.4-1.3-5.3-2.7c-1.8-1.4-3.6-2.8-5.3-4.4c-1.7-1.5-3.4-3-5-4.3c-1.6-1.3-3.1-2.1-4.5-2.5
			c-0.7-0.2-1.2,0.2-1.4,1.2c-0.3,1.2,0.1,2.8,1,4.9c1,2.1,2,4.3,3.2,6.6c1.2,2.4,2.2,4.7,3.1,7c0.9,2.3,1.2,4.2,0.9,5.6
			c-0.4,1.8-1.3,3.1-2.7,3.9c-1.4,0.8-2.8,1.1-4.2,0.7c-2.5-0.6-4.1-2.3-4.7-5.3c-0.6-2.9-1-6.1-0.9-9.4c0-3.3,0.1-6.4,0.2-9.1
			c0.1-2.7-0.3-4.2-1.2-4.5c-1.2-0.3-2.4,0.8-3.6,3.3c-1.2,2.5-2.6,5.3-4,8.3c-1.5,3-3.1,5.7-4.9,8c-1.8,2.4-3.9,3.3-6.3,2.7
			c-1.7-0.4-2.9-1.3-3.8-2.6c-0.8-1.3-1-3-0.6-4.9c0.4-1.6,1.5-3.3,3.4-5.1c1.9-1.8,3.9-3.6,6.1-5.2c2.2-1.6,4.2-3.1,6-4.4
			c1.8-1.3,2.7-2.3,2.9-3c0.2-1-0.2-1.6-1.3-1.8c-1.2-0.3-2.8-0.2-4.7,0.3c-1.9,0.5-4,1-6.2,1.6c-2.2,0.6-4.4,1-6.7,1.5
			c-2.2,0.4-4.2,0.4-5.9,0c-2-0.5-3.4-1.4-4.2-2.8c-0.8-1.4-0.9-2.9-0.5-4.6c1-4.3,5.6-5.5,13.7-3.6l11.7,2.7
			c2.5,0.6,3.9,0.3,4.2-0.7c0.3-1.2-0.6-2.6-2.6-4.3c-2-1.7-4.2-3.5-6.7-5.5c-2.5-2-4.6-4-6.6-6c-1.9-2-2.7-4-2.2-5.9
			c0.4-1.7,1.2-2.9,2.6-3.7c1.3-0.8,2.8-1,4.5-0.6c1.9,0.4,3.6,1.8,5.1,4.1c1.5,2.3,2.8,4.8,3.9,7.5c1.1,2.7,2.2,5.1,3.2,7.3
			c1,2.2,2,3.4,2.9,3.6c0.8,0.2,1.4-0.5,1.8-2c0.8-3.5,1-7,0.7-10.6c-0.4-3.6-0.2-7,0.6-10.1c0.6-2.4,1.5-4,2.9-4.8
			c1.4-0.8,2.9-1,4.6-0.6C46.8,3.3,48,4.1,49,5.5c1,1.4,1.2,3.3,0.7,5.7c-0.4,1.6-0.9,3.1-1.7,4.6c-0.8,1.5-1.6,3.1-2.5,4.6
			c-0.9,1.6-1.7,3.2-2.5,4.8c-0.8,1.6-1.4,3.4-1.9,5.2c-0.3,1.4-0.1,2.3,0.8,2.5c1.2,0.3,2.8-0.3,4.8-1.8c2-1.5,4.1-3.2,6.4-5
			c2.3-1.9,4.5-3.5,6.8-5c2.2-1.4,4.2-2,5.9-1.6c1.7,0.4,2.9,1.3,3.8,2.6c0.8,1.3,1,2.8,0.7,4.5c-0.4,1.9-2,3.4-4.7,4.5
			c-2.7,1.1-5.6,2-8.7,2.7c-3.1,0.7-6,1.4-8.5,1.9c-2.5,0.5-3.9,1.3-4.1,2.3c0,0.6,0.7,1.2,2,1.8c1.4,0.6,3,1.1,4.8,1.5L54.2,42z"/>
	</g>
</g>
<g>
	<path class="st3" d="M105.3,21.4c0-0.5,0.2-1,0.5-1.3c0.3-0.3,0.8-0.5,1.3-0.5h2.1c0.5,0,1,0.2,1.3,0.5c0.3,0.3,0.5,0.8,0.5,1.3
		v50.8c0,0.5-0.2,1-0.5,1.3c-0.3,0.3-0.8,0.5-1.3,0.5h-2.1c-0.5,0-1-0.2-1.3-0.5c-0.3-0.3-0.5-0.8-0.5-1.3V55
		c-0.7,1.1-1.7,1.9-3,2.4c-1.2,0.6-2.6,0.8-4.1,0.8h-1.7c-3.3,0-5.9-1-7.9-3c-1.9-2-2.9-4.9-2.9-8.6V31.2c0-3.7,1-6.5,2.9-8.6
		c1.9-2,4.6-3,7.9-3h1.2c1.6,0,3.1,0.3,4.4,0.9c1.3,0.6,2.4,1.4,3.2,2.4V21.4z M91.5,46.8c0,1.9,0.5,3.4,1.4,4.6
		c0.9,1.2,2.4,1.7,4.3,1.7h2.4c1.9,0,3.3-0.6,4.3-1.7c0.9-1.2,1.4-2.7,1.4-4.6V31.1c0-1.9-0.5-3.4-1.4-4.6c-0.9-1.2-2.4-1.7-4.3-1.7
		h-2.4c-1.9,0-3.3,0.6-4.3,1.7c-0.9,1.2-1.4,2.7-1.4,4.6V46.8z"/>
	<path class="st3" d="M126.8,58.2c-3.3,0-5.9-1-7.8-2.9c-1.9-1.9-2.9-4.8-2.9-8.4V21.4c0-0.5,0.2-1,0.5-1.3c0.3-0.3,0.8-0.5,1.3-0.5
		h2.1c0.5,0,1,0.2,1.3,0.5c0.3,0.3,0.5,0.8,0.5,1.3v25.4c0,1.9,0.5,3.4,1.4,4.6c0.9,1.2,2.4,1.7,4.3,1.7h1.5c1.9,0,3.3-0.6,4.3-1.7
		c1-1.2,1.5-2.7,1.5-4.6V21.4c0-0.5,0.2-1,0.5-1.3c0.3-0.3,0.8-0.5,1.3-0.5h2.1c0.5,0,1,0.2,1.3,0.5c0.3,0.3,0.5,0.8,0.5,1.3v35
		c0,0.5-0.2,1-0.5,1.3c-0.3,0.3-0.8,0.5-1.3,0.5h-2.1c-0.5,0-1-0.2-1.3-0.5c-0.3-0.3-0.5-0.8-0.5-1.3v-1.5
		C132.8,57.1,130.2,58.2,126.8,58.2z"/>
	<path class="st3" d="M150.8,39.6v7.3c0,1.9,0.5,3.4,1.4,4.6c0.9,1.2,2.4,1.7,4.3,1.7h2c1.9,0,3.3-0.6,4.3-1.7
		c0.9-1.2,1.4-2.7,1.4-4.6V46c0-0.5,0.2-1,0.5-1.3c0.3-0.3,0.8-0.5,1.3-0.5h2.1c0.5,0,1,0.2,1.3,0.5c0.3,0.3,0.5,0.8,0.5,1.3v0.6
		c0,3.7-1,6.5-2.9,8.6c-1.9,2-4.6,3-7.9,3h-3.3c-3.3,0-5.9-1-7.9-3c-1.9-2-2.9-4.9-2.9-8.6V31.2c0-3.7,1-6.5,2.9-8.6
		c1.9-2,4.6-3,7.9-3h3.3c3.3,0,5.9,1,7.9,3c1.9,2,2.9,4.9,2.9,8.6v6.5c0,0.5-0.2,1-0.5,1.3c-0.3,0.3-0.8,0.5-1.3,0.5H150.8z
		 M150.8,34.4h13.4v-3.4c0-1.9-0.5-3.4-1.4-4.6c-0.9-1.2-2.4-1.7-4.3-1.7h-2c-1.9,0-3.3,0.6-4.3,1.7c-0.9,1.2-1.4,2.7-1.4,4.6V34.4z
		"/>
	<path class="st3" d="M188.2,25.4c-1.4,0-2.6,0.3-3.7,0.8c-1.1,0.5-2,1.2-2.6,2.1c-0.7,0.9-1.2,2.1-1.5,3.3
		c-0.3,1.3-0.4,2.7-0.4,4.3v20.5c0,0.5-0.2,1-0.5,1.3c-0.3,0.3-0.8,0.5-1.3,0.5h-2.1c-0.5,0-1-0.2-1.3-0.5c-0.3-0.3-0.5-0.8-0.5-1.3
		v-35c0-0.5,0.2-1,0.5-1.3c0.3-0.3,0.8-0.5,1.3-0.5h2.1c0.5,0,1,0.2,1.3,0.5c0.3,0.3,0.5,0.8,0.5,1.3v3.3c1.1-1.8,2.4-3.2,3.9-3.9
		s3.4-1.2,5.5-1.2h1.1c0.5,0,1,0.2,1.3,0.6c0.3,0.4,0.5,0.8,0.5,1.3v2.1c0,0.5-0.2,1-0.5,1.3c-0.3,0.3-0.8,0.5-1.3,0.5H188.2z"/>
	<path class="st3" d="M208.1,53.1c0.3,0,0.5-0.2,0.6-0.5l6.9-31.4c0.2-1.1,0.9-1.6,2-1.6h1.9c1.3,0,2,0.6,2,1.8
		c0,0.4-0.1,0.9-0.2,1.6l-9.9,41.6c-0.4,1.7-0.9,3.1-1.4,4.1c-0.5,1.1-1.2,2-1.9,2.7c-1.7,1.7-4.3,2.5-7.8,2.5c-1.3,0-2.3,0-3-0.1
		c-0.7-0.1-1.3-0.2-1.7-0.4c-0.4-0.2-0.7-0.4-0.8-0.6c-0.1-0.3-0.2-0.6-0.2-1v-1.3c0-0.6,0.1-1.1,0.4-1.3c0.3-0.2,0.6-0.4,1.1-0.4
		c0.4,0,0.9,0,1.5,0.1c0.6,0.1,1.6,0.1,3,0.1c1.7,0,3-0.4,3.7-1.3c0.8-0.8,1.4-2.3,1.9-4.4l1.2-5.3H205c-0.6,0-1.1-0.2-1.5-0.5
		c-0.4-0.3-0.6-0.8-0.7-1.3l-8-33.7c-0.2-0.7-0.2-1.2-0.2-1.5c0-1.1,0.6-1.6,1.9-1.6h2.1c1.1,0,1.7,0.5,2,1.6l7,31.4
		C207.6,53,207.8,53.1,208.1,53.1z"/>
</g>
</svg>
