<?xml version="1.0" encoding="utf-8"?>
<!-- Generator: Adobe Illustrator 26.4.1, SVG Export Plug-In . SVG Version: 6.00 Build 0)  -->
<svg version="1.0" id="Layer_1" xmlns="http://www.w3.org/2000/svg" xmlns:xlink="http://www.w3.org/1999/xlink" x="0px" y="0px"
	 width="296.8px" height="88.9px" viewBox="0 0 296.8 88.9" style="enable-background:new 0 0 296.8 88.9;" xml:space="preserve">
<style type="text/css">
	.st0{stroke:#FFFFFF;stroke-miterlimit:10;stroke-opacity:0.1;}
	.st1{fill:#70CBD3;fill-opacity:0.5;}
	.st2{fill:#EE1C4E;fill-opacity:0.5;}
</style>
<g>
	<path class="st0" d="M107,63.3c0,3.4-0.7,6.3-2,8.8c-1.4,2.5-3.5,4.2-6.6,5.2l9.2,3.3c0.7,0.2,1.1,0.5,1.4,0.9
		c0.2,0.4,0.3,0.9,0.3,1.6v3.2c0,0.6-0.2,1.1-0.6,1.5c-0.4,0.4-0.9,0.6-1.5,0.6c-0.4,0-0.8-0.1-1.1-0.2c-0.4-0.1-0.8-0.2-1.1-0.4
		L84,79.7c-4.5-0.2-8.1-1.8-10.8-4.6c-2.7-2.8-4-6.7-4-11.7V16.9c0-2.6,0.4-5,1.3-7c0.9-2,2-3.8,3.5-5.2c1.5-1.4,3.2-2.5,5.3-3.2
		c2-0.7,4.2-1.1,6.6-1.1h4.5c2.3,0,4.5,0.4,6.6,1.1c2,0.7,3.8,1.8,5.3,3.2c1.5,1.4,2.6,3.1,3.5,5.2c0.9,2,1.3,4.4,1.3,7V63.3z
		 M98.7,17.6c0-3.1-0.7-5.5-2.2-7.1c-1.5-1.6-3.7-2.4-6.6-2.4h-3.6c-2.9,0-5.2,0.8-6.6,2.4c-1.5,1.6-2.2,4-2.2,7.1v45.1
		c0,6.3,2.9,9.5,8.8,9.5h3.6c2.9,0,5.2-0.8,6.6-2.4c1.5-1.6,2.2-4,2.2-7.1V17.6z"/>
	<path class="st0" d="M156.1,33.1v30c0,2.6-0.4,5-1.3,7.1c-0.9,2.1-2,3.8-3.5,5.2c-1.5,1.4-3.2,2.5-5.3,3.2c-2,0.8-4.2,1.1-6.6,1.1
		h-4.5c-2.3,0-4.5-0.4-6.6-1.1c-2-0.8-3.8-1.8-5.3-3.2c-1.5-1.4-2.6-3.1-3.5-5.2c-0.9-2.1-1.3-4.4-1.3-7.1v-60
		c0-0.8,0.2-1.4,0.7-1.9c0.5-0.5,1.1-0.7,1.9-0.7h3.1c0.8,0,1.4,0.2,1.9,0.7c0.5,0.5,0.7,1.1,0.7,1.9v59.6c0,2.7,0.7,5,2,6.8
		c1.4,1.8,3.4,2.7,6.1,2.7h5c2.7,0,4.8-0.9,6.1-2.7c1.4-1.8,2-4.1,2-6.8V33.1c0-0.8,0.2-1.4,0.7-1.9c0.5-0.5,1.1-0.7,1.9-0.7h3.1
		c0.8,0,1.4,0.2,1.9,0.7C155.9,31.7,156.1,32.4,156.1,33.1z M156.1,24.8c0,2.3-1.9,4.1-4.1,4.1s-4.1-1.9-4.1-4.1s1.9-4.1,4.1-4.1
		S156.1,22.5,156.1,24.8z M156.1,14.8c0,2.3-1.9,4.1-4.1,4.1s-4.1-1.9-4.1-4.1s1.9-4.1,4.1-4.1S156.1,12.5,156.1,14.8z M156.1,4.8
		c0,2.3-1.9,4.1-4.1,4.1s-4.1-1.9-4.1-4.1s1.9-4.1,4.1-4.1S156.1,2.5,156.1,4.8z"/>
	<path class="st0" d="M170,79.8c-0.7,0-1.3-0.2-1.8-0.7c-0.5-0.5-0.8-1.1-0.8-1.9V3c0-0.7,0.3-1.3,0.8-1.8c0.5-0.5,1.1-0.7,1.8-0.7
		h29.1c0.8,0,1.4,0.2,1.9,0.7c0.5,0.5,0.7,1.1,0.7,1.8v2.5c0,0.8-0.2,1.4-0.7,1.9c-0.5,0.5-1.1,0.7-1.9,0.7h-23.4v27.4h20
		c0.8,0,1.4,0.2,1.9,0.7c0.5,0.5,0.7,1.1,0.7,1.9v2.5c0,0.7-0.2,1.3-0.7,1.8c-0.5,0.5-1.1,0.7-1.9,0.7h-20v29.1h24.6
		c0.8,0,1.4,0.2,1.9,0.7c0.5,0.5,0.7,1.1,0.7,1.8v2.5c0,0.8-0.2,1.4-0.7,1.9c-0.5,0.5-1.1,0.7-1.9,0.7H170z"/>
	<path class="st0" d="M218.6,77.2c0,0.8-0.2,1.4-0.7,1.9c-0.5,0.5-1.1,0.7-1.9,0.7h-3.1c-0.7,0-1.3-0.2-1.8-0.7
		c-0.5-0.5-0.8-1.1-0.8-1.9V3c0-0.8,0.3-1.4,0.8-1.8c0.5-0.5,1.1-0.7,1.8-0.7h18.6c2.3,0,4.5,0.4,6.6,1.1c2,0.8,3.8,1.8,5.3,3.2
		c1.5,1.4,2.6,3.1,3.5,5.2c0.9,2.1,1.3,4.4,1.3,7.1v8.2c0,3.2-0.7,6.1-2.1,8.6c-1.4,2.5-3.5,4.3-6.4,5.3c3.3,1.4,5.6,3.3,6.7,5.9
		c1.2,2.6,1.8,5.1,1.8,7.6v20.2c0,1,0.1,1.9,0.3,2.9c0.2,0.9,0.3,1.6,0.3,2.1c0,1.3-0.8,1.9-2.4,1.9h-2c-1.6,0-2.7-0.4-3.4-1.3
		c-0.7-0.9-1-2.1-1-3.7V52.9c0-3.2-0.9-5.7-2.7-7.4c-1.8-1.7-4.3-2.5-7.6-2.5h-11.2L218.6,77.2z M231.3,35.7c2.8,0,4.9-0.9,6.4-2.8
		c1.5-1.8,2.2-4.1,2.2-6.9v-8.5c0-2.7-0.7-5-2.2-6.9c-1.5-1.9-3.6-2.8-6.3-2.8h-12.8v27.9H231.3z"/>
	<path class="st0" d="M294.1,0.5c1.4,0,2.2,0.6,2.2,1.8c0,0.4-0.1,0.8-0.2,1.2c-0.2,0.5-0.4,1.2-0.8,2.4L279,52.3v24.9
		c0,0.8-0.3,1.4-0.8,1.9c-0.5,0.5-1.1,0.7-1.8,0.7h-3.1c-0.7,0-1.3-0.2-1.8-0.7c-0.5-0.5-0.8-1.1-0.8-1.9V52.4l-17-47.6
		c-0.2-0.6-0.4-1.1-0.5-1.4c-0.1-0.3-0.1-0.6-0.1-1c0-0.7,0.2-1.2,0.7-1.5c0.5-0.3,0.9-0.5,1.4-0.5h4.1c1.4,0,2.3,0.8,2.8,2.5
		L275,41.5L287.5,3c0.5-1.7,1.4-2.5,2.9-2.5H294.1z"/>
</g>
<g>
	<path class="st1" d="M31,47.3L24,64.7c-1,2.5-2.4,3.9-4.4,4.1c-1.8,0.2-3.4-0.2-4.9-1.2c-1.5-1-2.3-2.4-2.5-4.3
		c-0.1-1.1,0.1-2,0.6-2.8c0.7-1.1,1.7-2.5,3.1-4.2c1.3-1.7,2.7-3.4,4-5.2c1.5-2,3.1-4,4.9-6.1c-2.7-0.3-5.1-0.6-7.4-0.9
		c-2.1-0.2-4.1-0.4-5.8-0.6c-1.7-0.2-3-0.4-3.8-0.5c-0.9-0.1-1.7-0.5-2.4-1.2C4.6,41.1,4.2,40,4,38.6c-0.2-1.7,0.2-3.3,1.1-4.7
		s2.1-2.3,3.6-2.4c0.5-0.1,1.1,0,1.7,0.1c0.6,0.1,1.3,0.3,2.2,0.8l14.5,7.2c-0.9-2.4-1.6-4.9-2.2-7.2c-0.6-2.2-1.2-4.3-1.7-6.4
		c-0.5-2.1-0.9-4-1-5.7c-0.2-1.6,0.3-2.9,1.3-3.9c1-1,2.4-1.5,4.2-1.7c1.8-0.2,3.3,0.1,4.5,0.8c1.2,0.7,1.9,1.9,2,3.5
		c0.2,1.7,0.2,3.7,0.1,6c-0.1,2.3-0.2,4.5-0.4,6.5c-0.2,2.4-0.4,5-0.8,7.5L46,28.9c0.8-0.6,1.4-1,2-1.2c0.6-0.2,1.1-0.3,1.6-0.4
		c1.5-0.2,2.8,0.4,4,1.6c1.2,1.2,1.9,2.7,2,4.4c0.1,1.4-0.1,2.5-0.6,3.3s-1.2,1.4-2.1,1.7c-0.8,0.3-2.1,0.7-3.8,1.3
		c-1.8,0.6-3.6,1.2-5.4,1.8c-2.2,0.7-4.5,1.5-7,2.4c2.1,1.7,4.1,3.4,6,5c1.8,1.5,3.5,3,5.1,4.3c1.6,1.4,2.9,2.5,3.8,3.4
		c0.7,0.6,1.1,1.5,1.2,2.6c0.2,1.9-0.3,3.5-1.6,4.7c-1.2,1.2-2.8,1.9-4.6,2.1c-2,0.2-3.7-0.8-5.2-3.1L31,47.3z"/>
</g>
<g>
	<path class="st2" d="M27,43.3L20,60.7c-1,2.5-2.4,3.9-4.4,4.1c-1.8,0.2-3.4-0.2-4.9-1.2c-1.5-1-2.3-2.4-2.5-4.3
		c-0.1-1.1,0.1-2,0.6-2.8c0.7-1.1,1.7-2.5,3.1-4.2c1.3-1.7,2.7-3.4,4-5.2c1.5-2,3.1-4,4.9-6.1c-2.7-0.3-5.1-0.6-7.4-0.9
		c-2.1-0.2-4.1-0.4-5.8-0.6c-1.7-0.2-3-0.4-3.8-0.5c-0.9-0.1-1.7-0.5-2.4-1.2C0.6,37.1,0.2,36,0,34.6c-0.2-1.7,0.2-3.3,1.1-4.7
		s2.1-2.3,3.6-2.4c0.5-0.1,1.1,0,1.7,0.1c0.6,0.1,1.3,0.3,2.2,0.8l14.5,7.2c-0.9-2.4-1.6-4.9-2.2-7.2c-0.6-2.2-1.2-4.3-1.7-6.4
		c-0.5-2.1-0.9-4-1-5.7c-0.2-1.6,0.3-2.9,1.3-3.9c1-1,2.4-1.5,4.2-1.7c1.8-0.2,3.3,0.1,4.5,0.8c1.2,0.7,1.9,1.9,2,3.5
		c0.2,1.7,0.2,3.7,0.1,6c-0.1,2.3-0.2,4.5-0.4,6.5c-0.2,2.4-0.4,5-0.8,7.5L42,24.9c0.8-0.6,1.4-1,2-1.2c0.6-0.2,1.1-0.3,1.6-0.4
		c1.5-0.2,2.8,0.4,4,1.6c1.2,1.2,1.9,2.7,2,4.4c0.1,1.4-0.1,2.5-0.6,3.3s-1.2,1.4-2.1,1.7c-0.8,0.3-2.1,0.7-3.8,1.3
		c-1.8,0.6-3.6,1.2-5.4,1.8c-2.2,0.7-4.5,1.5-7,2.4c2.1,1.7,4.1,3.4,6,5c1.8,1.5,3.5,3,5.1,4.3c1.6,1.4,2.9,2.5,3.8,3.4
		c0.7,0.6,1.1,1.5,1.2,2.6c0.2,1.9-0.3,3.5-1.6,4.7c-1.2,1.2-2.8,1.9-4.6,2.1c-2,0.2-3.7-0.8-5.2-3.1L27,43.3z"/>
</g>
<g>
	<path d="M29,45.3L22,62.7c-1,2.5-2.4,3.9-4.4,4.1c-1.8,0.2-3.4-0.2-4.9-1.2c-1.5-1-2.3-2.4-2.5-4.3c-0.1-1.1,0.1-2,0.6-2.8
		c0.7-1.1,1.7-2.5,3.1-4.2c1.3-1.7,2.7-3.4,4-5.2c1.5-2,3.1-4,4.9-6.1c-2.7-0.3-5.1-0.6-7.4-0.9c-2.1-0.2-4.1-0.4-5.8-0.6
		c-1.7-0.2-3-0.4-3.8-0.5c-0.9-0.1-1.7-0.5-2.4-1.2C2.6,39.1,2.2,38,2,36.6c-0.2-1.7,0.2-3.3,1.1-4.7s2.1-2.3,3.6-2.4
		c0.5-0.1,1.1,0,1.7,0.1c0.6,0.1,1.3,0.3,2.2,0.8l14.5,7.2c-0.9-2.4-1.6-4.9-2.2-7.2c-0.6-2.2-1.2-4.3-1.7-6.4c-0.5-2.1-0.9-4-1-5.7
		c-0.2-1.6,0.3-2.9,1.3-3.9c1-1,2.4-1.5,4.2-1.7c1.8-0.2,3.3,0.1,4.5,0.8c1.2,0.7,1.9,1.9,2,3.5c0.2,1.7,0.2,3.7,0.1,6
		c-0.1,2.3-0.2,4.5-0.4,6.5c-0.2,2.4-0.4,5-0.8,7.5L44,26.9c0.8-0.6,1.4-1,2-1.2c0.6-0.2,1.1-0.3,1.6-0.4c1.5-0.2,2.8,0.4,4,1.6
		c1.2,1.2,1.9,2.7,2,4.4c0.1,1.4-0.1,2.5-0.6,3.3s-1.2,1.4-2.1,1.7c-0.8,0.3-2.1,0.7-3.8,1.3c-1.8,0.6-3.6,1.2-5.4,1.8
		c-2.2,0.7-4.5,1.5-7,2.4c2.1,1.7,4.1,3.4,6,5c1.8,1.5,3.5,3,5.1,4.3c1.6,1.4,2.9,2.5,3.8,3.4c0.7,0.6,1.1,1.5,1.2,2.6
		c0.2,1.9-0.3,3.5-1.6,4.7c-1.2,1.2-2.8,1.9-4.6,2.1c-2,0.2-3.7-0.8-5.2-3.1L29,45.3z"/>
</g>
</svg>
