<?xml version="1.0" encoding="utf-8"?>
<!-- Generator: Adobe Illustrator 26.4.1, SVG Export Plug-In . SVG Version: 6.00 Build 0)  -->
<svg version="1.0" id="Layer_1" xmlns="http://www.w3.org/2000/svg" xmlns:xlink="http://www.w3.org/1999/xlink" x="0px" y="0px"
	 width="276.7px" height="96.3px" viewBox="0 0 276.7 96.3" style="enable-background:new 0 0 276.7 96.3;" xml:space="preserve">
<style type="text/css">
	.st0{fill:#E31E8F;stroke:#FFFFFF;stroke-miterlimit:10;}
	.st1{fill:#20BEC6;stroke:#FFFFFF;stroke-miterlimit:10;}
	.st2{stroke:#FFFFFF;stroke-width:0.5;}
	.st3{stroke:#FFFFFF;stroke-miterlimit:10;}
</style>
<g>
	<g>
		<path class="st0" d="M70.5,56.5c1.2,0.1,2.5,0.3,3.7,0.6c1.3,0.3,2.5,0.6,3.7,0.9c9.2,2.2,13.2,6.1,11.8,11.7
			c-0.4,1.8-1.4,3.3-3,4.5c-1.6,1.2-3.6,1.5-6,1c-2.1-0.5-4.3-1.6-6.5-3.3c-2.3-1.7-4.5-3.5-6.6-5.4c-2.1-1.9-4.2-3.7-6.2-5.3
			c-2-1.6-3.8-2.7-5.6-3.1c-0.9-0.2-1.5,0.3-1.8,1.5c-0.3,1.5,0.1,3.5,1.3,6.1c1.2,2.6,2.5,5.3,4,8.2c1.4,2.9,2.7,5.8,3.9,8.7
			c1.1,2.9,1.5,5.2,1.1,7c-0.5,2.2-1.6,3.8-3.4,4.9c-1.7,1-3.5,1.3-5.3,0.9c-3.1-0.7-5.1-2.9-5.9-6.5c-0.8-3.6-1.2-7.5-1.2-11.7
			c0-4.1,0.1-7.9,0.3-11.3c0.2-3.4-0.3-5.3-1.5-5.5c-1.5-0.3-3,1-4.5,4.1c-1.5,3.1-3.2,6.5-5,10.2c-1.8,3.7-3.8,7.1-6.1,10
			c-2.3,2.9-4.9,4-7.8,3.3c-2.1-0.5-3.6-1.6-4.7-3.2c-1-1.7-1.3-3.7-0.7-6c0.5-1.9,1.8-4,4.2-6.3c2.3-2.3,4.9-4.4,7.6-6.5
			c2.7-2,5.2-3.8,7.4-5.4c2.2-1.6,3.4-2.9,3.6-3.7c0.3-1.2-0.3-1.9-1.6-2.3c-1.5-0.3-3.4-0.2-5.9,0.4c-2.4,0.6-5,1.3-7.7,2
			c-2.7,0.7-5.5,1.3-8.3,1.8c-2.8,0.5-5.2,0.5-7.3,0.1C8,57.9,6.3,56.7,5.4,55c-0.9-1.7-1.2-3.6-0.7-5.7c1.3-5.4,6.9-6.8,17-4.5
			l14.5,3.4c3.1,0.7,4.8,0.4,5.2-0.9c0.3-1.5-0.7-3.3-3.2-5.3c-2.5-2.1-5.3-4.3-8.3-6.8c-3-2.4-5.8-4.9-8.1-7.4
			c-2.4-2.5-3.3-5-2.8-7.3c0.5-2.1,1.5-3.6,3.2-4.5c1.6-0.9,3.5-1.2,5.6-0.7c2.4,0.6,4.5,2.3,6.3,5.1c1.8,2.9,3.5,5.9,4.9,9.3
			c1.4,3.3,2.8,6.3,4,9c1.2,2.7,2.5,4.2,3.7,4.5c1,0.2,1.8-0.6,2.2-2.5c1-4.3,1.3-8.7,0.8-13.2c-0.4-4.5-0.2-8.7,0.7-12.5
			c0.7-3,1.9-5,3.6-6c1.7-1,3.6-1.3,5.7-0.8c1.6,0.4,3.1,1.4,4.3,3.1c1.2,1.7,1.5,4,0.8,7c-0.5,1.9-1.2,3.8-2.2,5.7
			c-1,1.9-2,3.8-3.1,5.7c-1.1,1.9-2.1,3.9-3.2,6c-1,2-1.8,4.2-2.3,6.4c-0.4,1.8-0.1,2.8,0.9,3c1.5,0.3,3.5-0.4,5.9-2.3
			c2.5-1.9,5.1-3.9,7.9-6.3c2.8-2.3,5.6-4.4,8.4-6.2c2.8-1.8,5.2-2.4,7.3-1.9c2.1,0.5,3.6,1.6,4.7,3.2c1,1.7,1.3,3.5,0.8,5.6
			c-0.6,2.4-2.5,4.2-5.8,5.6c-3.3,1.3-6.9,2.5-10.8,3.4c-3.9,0.9-7.4,1.7-10.5,2.4c-3.1,0.7-4.8,1.6-5.1,2.8c0,0.8,0.8,1.5,2.5,2.2
			c1.7,0.7,3.7,1.3,5.9,1.9L70.5,56.5z"/>
	</g>
	<g>
		<path class="st1" d="M67.1,49.6c1.2,0.1,2.5,0.3,3.7,0.6c1.3,0.3,2.5,0.6,3.7,0.9c9.2,2.2,13.2,6.1,11.8,11.7
			c-0.4,1.8-1.4,3.3-3,4.5c-1.6,1.2-3.6,1.5-6,1c-2.1-0.5-4.3-1.6-6.5-3.3c-2.3-1.7-4.5-3.5-6.6-5.4C62,57.6,60,55.8,58,54.2
			c-2-1.6-3.8-2.7-5.6-3.1c-0.9-0.2-1.5,0.3-1.8,1.5c-0.3,1.5,0.1,3.5,1.3,6.1c1.2,2.6,2.5,5.3,4,8.2c1.4,2.9,2.7,5.8,3.9,8.7
			c1.1,2.9,1.5,5.2,1.1,7c-0.5,2.2-1.6,3.8-3.4,4.9c-1.7,1-3.5,1.3-5.3,0.9c-3.1-0.7-5.1-2.9-5.9-6.5c-0.8-3.6-1.2-7.5-1.2-11.7
			c0-4.1,0.1-7.9,0.3-11.3c0.2-3.4-0.3-5.3-1.5-5.5c-1.5-0.3-3,1-4.5,4.1c-1.5,3.1-3.2,6.5-5,10.2c-1.8,3.7-3.8,7.1-6.1,10
			c-2.3,2.9-4.9,4-7.8,3.3c-2.1-0.5-3.6-1.6-4.7-3.2c-1-1.7-1.3-3.7-0.7-6c0.5-1.9,1.8-4,4.2-6.3c2.3-2.3,4.9-4.4,7.6-6.5
			c2.7-2,5.2-3.8,7.4-5.4c2.2-1.6,3.4-2.9,3.6-3.7c0.3-1.2-0.3-1.9-1.6-2.3c-1.5-0.3-3.4-0.2-5.9,0.4c-2.4,0.6-5,1.3-7.7,2
			c-2.7,0.7-5.5,1.3-8.3,1.8c-2.8,0.5-5.2,0.5-7.3,0.1c-2.5-0.6-4.3-1.7-5.2-3.4c-0.9-1.7-1.2-3.6-0.7-5.7c1.3-5.4,6.9-6.8,17-4.5
			l14.5,3.4c3.1,0.7,4.8,0.4,5.2-0.9c0.3-1.5-0.7-3.3-3.2-5.3c-2.5-2.1-5.3-4.3-8.3-6.8c-3-2.4-5.8-4.9-8.1-7.4
			c-2.4-2.5-3.3-5-2.8-7.3C16,11.5,17.1,10,18.7,9c1.6-0.9,3.5-1.2,5.6-0.7c2.4,0.6,4.5,2.3,6.3,5.1c1.8,2.9,3.5,5.9,4.9,9.3
			c1.4,3.3,2.8,6.3,4,9c1.2,2.7,2.5,4.2,3.7,4.5c1,0.2,1.8-0.6,2.2-2.5c1-4.3,1.3-8.7,0.8-13.2C45.8,16,46,11.9,46.9,8
			c0.7-3,1.9-5,3.6-6c1.7-1,3.6-1.3,5.7-0.8c1.6,0.4,3.1,1.4,4.3,3.1c1.2,1.7,1.5,4,0.8,7c-0.5,1.9-1.2,3.8-2.2,5.7
			c-1,1.9-2,3.8-3.1,5.7c-1.1,1.9-2.1,3.9-3.2,6c-1,2-1.8,4.2-2.3,6.4c-0.4,1.8-0.1,2.8,0.9,3c1.5,0.3,3.5-0.4,5.9-2.3
			c2.5-1.9,5.1-3.9,7.9-6.3c2.8-2.3,5.6-4.4,8.4-6.2c2.8-1.8,5.2-2.4,7.3-1.9c2.1,0.5,3.6,1.6,4.7,3.2c1,1.7,1.3,3.5,0.8,5.6
			c-0.6,2.4-2.5,4.2-5.8,5.6c-3.3,1.3-6.9,2.5-10.8,3.4c-3.9,0.9-7.4,1.7-10.5,2.4c-3.1,0.7-4.8,1.6-5.1,2.8c0,0.8,0.8,1.5,2.5,2.2
			c1.7,0.7,3.7,1.3,5.9,1.9L67.1,49.6z"/>
	</g>
	<g>
		<path class="st2" d="M68.2,53c1.2,0.1,2.5,0.3,3.7,0.6c1.3,0.3,2.5,0.6,3.7,0.9c9.2,2.2,13.2,6.1,11.8,11.7
			c-0.4,1.8-1.4,3.3-3,4.5c-1.6,1.2-3.6,1.5-6,1c-2.1-0.5-4.3-1.6-6.5-3.3c-2.3-1.7-4.5-3.5-6.6-5.4c-2.1-1.9-4.2-3.7-6.2-5.3
			c-2-1.6-3.8-2.7-5.6-3.1c-0.9-0.2-1.5,0.3-1.8,1.5c-0.3,1.5,0.1,3.5,1.3,6.1c1.2,2.6,2.5,5.3,4,8.2c1.4,2.9,2.7,5.8,3.9,8.7
			c1.1,2.9,1.5,5.2,1.1,7c-0.5,2.2-1.6,3.8-3.4,4.9c-1.7,1-3.5,1.3-5.3,0.9c-3.1-0.7-5.1-2.9-5.9-6.5c-0.8-3.6-1.2-7.5-1.2-11.7
			c0-4.1,0.1-7.9,0.3-11.3c0.2-3.4-0.3-5.3-1.5-5.5c-1.5-0.3-3,1-4.5,4.1c-1.5,3.1-3.2,6.5-5,10.2c-1.8,3.7-3.8,7.1-6.1,10
			c-2.3,2.9-4.9,4-7.8,3.3c-2.1-0.5-3.6-1.6-4.7-3.2c-1-1.7-1.3-3.7-0.7-6c0.5-1.9,1.8-4,4.2-6.3c2.3-2.3,4.9-4.4,7.6-6.5
			c2.7-2,5.2-3.8,7.4-5.4c2.2-1.6,3.4-2.9,3.6-3.7c0.3-1.2-0.3-1.9-1.6-2.3c-1.5-0.3-3.4-0.2-5.9,0.4c-2.4,0.6-5,1.3-7.7,2
			c-2.7,0.7-5.5,1.3-8.3,1.8c-2.8,0.5-5.2,0.5-7.3,0.1c-2.5-0.6-4.3-1.7-5.2-3.4c-0.9-1.7-1.2-3.6-0.7-5.7c1.3-5.4,6.9-6.8,17-4.5
			l14.5,3.4c3.1,0.7,4.8,0.4,5.2-0.9c0.3-1.5-0.7-3.3-3.2-5.3c-2.5-2.1-5.3-4.3-8.3-6.8c-3-2.4-5.8-4.9-8.1-7.4
			c-2.4-2.5-3.3-5-2.8-7.3c0.5-2.1,1.5-3.6,3.2-4.5c1.6-0.9,3.5-1.2,5.6-0.7c2.4,0.6,4.5,2.3,6.3,5.1c1.8,2.9,3.5,5.9,4.9,9.3
			c1.4,3.3,2.8,6.3,4,9c1.2,2.7,2.5,4.2,3.7,4.5c1,0.2,1.8-0.6,2.2-2.5c1-4.3,1.3-8.7,0.8-13.2c-0.4-4.5-0.2-8.7,0.7-12.5
			c0.7-3,1.9-5,3.6-6c1.7-1,3.6-1.3,5.7-0.8c1.6,0.4,3.1,1.4,4.3,3.1c1.2,1.7,1.5,4,0.8,7c-0.5,1.9-1.2,3.8-2.2,5.7
			c-1,1.9-2,3.8-3.1,5.7c-1.1,1.9-2.1,3.9-3.2,6c-1,2-1.8,4.2-2.3,6.4c-0.4,1.8-0.1,2.8,0.9,3c1.5,0.3,3.5-0.4,5.9-2.3
			c2.5-1.9,5.1-3.9,7.9-6.3c2.8-2.3,5.6-4.4,8.4-6.2c2.8-1.8,5.2-2.4,7.3-1.9c2.1,0.5,3.6,1.6,4.7,3.2c1,1.7,1.3,3.5,0.8,5.6
			c-0.6,2.4-2.5,4.2-5.8,5.6c-3.3,1.3-6.9,2.5-10.8,3.4c-3.9,0.9-7.4,1.7-10.5,2.4c-3.1,0.7-4.8,1.6-5.1,2.8c0,0.8,0.8,1.5,2.5,2.2
			c1.7,0.7,3.7,1.3,5.9,1.9L68.2,53z"/>
	</g>
</g>
<g>
	<path class="st3" d="M131.5,27.6c0-0.7,0.2-1.2,0.6-1.6c0.4-0.4,1-0.6,1.6-0.6h2.6c0.7,0,1.2,0.2,1.6,0.6c0.4,0.4,0.6,1,0.6,1.6
		v62.9c0,0.7-0.2,1.2-0.6,1.6c-0.4,0.4-1,0.6-1.6,0.6h-2.6c-0.7,0-1.2-0.2-1.6-0.6c-0.4-0.4-0.6-1-0.6-1.6V69.2
		c-0.9,1.3-2.1,2.3-3.7,3c-1.5,0.7-3.2,1-5.1,1h-2.1c-4.1,0-7.4-1.3-9.8-3.8c-2.4-2.5-3.6-6-3.6-10.6V39.7c0-4.6,1.2-8.1,3.6-10.6
		c2.4-2.5,5.7-3.8,9.8-3.8h1.5c2,0,3.8,0.4,5.4,1.1c1.6,0.7,2.9,1.7,4,3V27.6z M114.4,59.1c0,2.3,0.6,4.2,1.8,5.7
		c1.2,1.4,2.9,2.2,5.3,2.2h3c2.3,0,4.1-0.7,5.3-2.2c1.2-1.4,1.8-3.3,1.8-5.7V39.5c0-2.3-0.6-4.2-1.8-5.7c-1.2-1.4-2.9-2.2-5.3-2.2
		h-3c-2.3,0-4.1,0.7-5.3,2.2c-1.2,1.4-1.8,3.3-1.8,5.7V59.1z"/>
	<path class="st3" d="M158.2,73.2c-4.1,0-7.3-1.2-9.7-3.6c-2.4-2.4-3.6-5.9-3.6-10.5V27.6c0-0.7,0.2-1.2,0.6-1.6
		c0.4-0.4,1-0.6,1.6-0.6h2.6c0.7,0,1.2,0.2,1.6,0.6c0.4,0.4,0.6,1,0.6,1.6v31.5c0,2.3,0.6,4.2,1.8,5.7c1.2,1.4,2.9,2.2,5.3,2.2h1.9
		c2.3,0,4.1-0.7,5.3-2.2c1.2-1.4,1.8-3.3,1.8-5.7V27.6c0-0.7,0.2-1.2,0.6-1.6c0.4-0.4,1-0.6,1.6-0.6h2.6c0.7,0,1.2,0.2,1.6,0.6
		c0.4,0.4,0.6,1,0.6,1.6V71c0,0.7-0.2,1.2-0.6,1.6c-0.4,0.4-1,0.6-1.6,0.6h-2.6c-0.7,0-1.2-0.2-1.6-0.6c-0.4-0.4-0.6-1-0.6-1.6v-1.9
		C165.7,71.9,162.4,73.2,158.2,73.2z"/>
	<path class="st3" d="M188,50.1v9c0,2.3,0.6,4.2,1.8,5.7c1.2,1.4,2.9,2.2,5.3,2.2h2.5c2.3,0,4.1-0.7,5.3-2.2
		c1.2-1.4,1.8-3.3,1.8-5.7v-1c0-0.7,0.2-1.2,0.6-1.6c0.4-0.4,1-0.6,1.6-0.6h2.6c0.7,0,1.2,0.2,1.6,0.6c0.4,0.4,0.6,1,0.6,1.6v0.8
		c0,4.6-1.2,8.1-3.6,10.6c-2.4,2.5-5.7,3.8-9.8,3.8h-4.1c-4.1,0-7.4-1.3-9.8-3.8c-2.4-2.5-3.6-6-3.6-10.6V39.7
		c0-4.6,1.2-8.1,3.6-10.6c2.4-2.5,5.7-3.8,9.8-3.8h4.1c4.1,0,7.4,1.3,9.8,3.8c2.4,2.5,3.6,6,3.6,10.6v8.1c0,0.7-0.2,1.2-0.6,1.6
		c-0.4,0.4-1,0.6-1.6,0.6H188z M188,43.7h16.6v-4.2c0-2.3-0.6-4.2-1.8-5.7c-1.2-1.4-2.9-2.2-5.3-2.2h-2.5c-2.3,0-4.1,0.7-5.3,2.2
		c-1.2,1.4-1.8,3.3-1.8,5.7V43.7z"/>
	<path class="st3" d="M234.4,32.5c-1.7,0-3.2,0.3-4.5,1c-1.3,0.7-2.4,1.5-3.3,2.6c-0.9,1.2-1.5,2.6-1.9,4.2
		c-0.3,1.6-0.5,3.4-0.5,5.3V71c0,0.7-0.2,1.2-0.6,1.6c-0.4,0.4-1,0.6-1.6,0.6h-2.6c-0.7,0-1.2-0.2-1.6-0.6c-0.4-0.4-0.6-1-0.6-1.6
		V27.6c0-0.7,0.2-1.2,0.6-1.6c0.4-0.4,1-0.6,1.6-0.6h2.6c0.7,0,1.2,0.2,1.6,0.6c0.4,0.4,0.6,1,0.6,1.6v4.1c1.3-2.3,2.9-3.9,4.9-4.9
		c2-1,4.2-1.5,6.8-1.5h1.4c0.7,0,1.2,0.2,1.6,0.7c0.4,0.5,0.6,1,0.6,1.6v2.6c0,0.7-0.2,1.2-0.6,1.6c-0.4,0.4-1,0.6-1.6,0.6H234.4z"
		/>
	<path class="st3" d="M259,66.9c0.4,0,0.6-0.2,0.7-0.6l8.6-39c0.3-1.3,1.1-2,2.5-2h2.3c1.6,0,2.4,0.7,2.4,2.2c0,0.5-0.1,1.2-0.3,2
		L263,81.1c-0.5,2.1-1.1,3.8-1.8,5.1c-0.7,1.3-1.4,2.5-2.3,3.4c-2.1,2.1-5.3,3.1-9.7,3.1c-1.6,0-2.8,0-3.7-0.1
		c-0.9-0.1-1.6-0.2-2.1-0.4c-0.5-0.2-0.8-0.5-1-0.8c-0.2-0.3-0.2-0.7-0.2-1.3v-1.6c0-0.8,0.2-1.3,0.5-1.6c0.4-0.3,0.8-0.4,1.3-0.4
		c0.5,0,1.1,0,1.9,0.1c0.7,0.1,2,0.1,3.7,0.1c2.1,0,3.7-0.5,4.6-1.6c0.9-1,1.7-2.9,2.3-5.5l1.5-6.5h-2.8c-0.7,0-1.3-0.2-1.8-0.6
		c-0.5-0.4-0.8-1-0.9-1.6l-10-41.8c-0.2-0.9-0.3-1.5-0.3-1.9c0-1.3,0.8-2,2.3-2h2.6c1.3,0,2.1,0.7,2.4,2l8.7,39
		C258.5,66.7,258.7,66.9,259,66.9z"/>
</g>
</svg>
